<svg width="1440" height="120" viewBox="0 0 1440 120" fill="none" xmlns="http://www.w3.org/2000/svg">
<g clip-path="url(#clip0_106_163)">
<path opacity="0.25" d="M1440 120V73.71C1382.65 51.51 1315.69 41.54 1250.4 45.71C1165.97 51.08 1086.8 79.02 1002.24 83.21C913.632 87.57 825.192 66.33 740.4 47.95C657.276 29.95 574.44 23.07 489.12 34.87C445.74 40.87 405.3 52.71 363.78 64.21C252.612 95 104.4 134.29 -5.72205e-05 67.53V120L1440 120Z" fill="#291E3E"/>
<path opacity="0.5" d="M1440 120V104.19C1424.4 83.08 1406.83 63.14 1382.77 47.95C1320.71 8.73 1242 9 1170.5 28.42C1133.12 38.57 1098.4 54.49 1062.9 68.22C1013.8 87.22 961.224 114.22 905.904 117.89C862.392 120.74 820.824 108.47 787.584 86.33C749.46 60.94 712.8 24.33 663.228 13.33C614.7 2.54 565.608 20.02 520.272 37.61C474.936 55.2 430.08 76.61 379.968 80.66C308.292 86.51 244.032 57.78 177.288 41.82C141.048 33.16 106.488 35.65 72.78 49.32C45.864 60.21 15.1799 76.25 -5.72205e-05 98.56V120L1440 120Z" fill="#291E3E"/>
<path d="M1440 120V114.37C1260.08 61 1063.09 48.68 869.004 77.43C817.404 85.07 767.928 97.55 715.872 103.89C645.072 112.52 580.896 91.65 517.2 68.49C446.484 42.78 376.8 24.76 298.56 30C194.724 37 91.6079 75.71 -5.72205e-05 114.81V120L1440 120Z" fill="#291E3E"/>
</g>
<defs>
<clipPath id="clip0_106_163">
<rect width="1440" height="120" fill="white" transform="translate(1440 120) rotate(-180)"/>
</clipPath>
</defs>
</svg>
